<mxfile host="app.diagrams.net" modified="2022-04-16T07:41:55.260Z" agent="5.0 (Windows NT 10.0; Win64; x64) AppleWebKit/537.36 (KHTML, like Gecko) Chrome/100.0.4896.75 Safari/537.36 Edg/100.0.1185.39" etag="2Rz6Wr22tTLyN1uN4Nda" version="17.4.5" type="github">
  <diagram id="sUlDWwWhl0BbCJW8W2jn" name="Page-1">
    <mxGraphModel dx="1246" dy="573" grid="1" gridSize="10" guides="1" tooltips="1" connect="1" arrows="1" fold="1" page="1" pageScale="1" pageWidth="827" pageHeight="1169" math="0" shadow="0">
      <root>
        <mxCell id="0" />
        <mxCell id="1" parent="0" />
        <mxCell id="s3L1DL3AQ4cHIZa4Q5mT-3" value="所在院系" style="ellipse;whiteSpace=wrap;html=1;" vertex="1" parent="1">
          <mxGeometry x="130" y="70" width="80" height="40" as="geometry" />
        </mxCell>
        <mxCell id="s3L1DL3AQ4cHIZa4Q5mT-4" value="所徐专业" style="ellipse;whiteSpace=wrap;html=1;" vertex="1" parent="1">
          <mxGeometry x="230" y="80" width="80" height="40" as="geometry" />
        </mxCell>
        <mxCell id="s3L1DL3AQ4cHIZa4Q5mT-7" value="入学时间" style="ellipse;whiteSpace=wrap;html=1;" vertex="1" parent="1">
          <mxGeometry x="40" y="210" width="80" height="40" as="geometry" />
        </mxCell>
        <mxCell id="s3L1DL3AQ4cHIZa4Q5mT-8" value="所在班级" style="ellipse;whiteSpace=wrap;html=1;" vertex="1" parent="1">
          <mxGeometry x="270" y="130" width="80" height="40" as="geometry" />
        </mxCell>
        <mxCell id="s3L1DL3AQ4cHIZa4Q5mT-9" value="学制" style="ellipse;whiteSpace=wrap;html=1;" vertex="1" parent="1">
          <mxGeometry x="110" y="250" width="60" height="40" as="geometry" />
        </mxCell>
        <mxCell id="s3L1DL3AQ4cHIZa4Q5mT-11" value="学生基本信息" style="rounded=0;whiteSpace=wrap;html=1;" vertex="1" parent="1">
          <mxGeometry x="160" y="160" width="90" height="30" as="geometry" />
        </mxCell>
        <mxCell id="s3L1DL3AQ4cHIZa4Q5mT-15" value="" style="endArrow=none;html=1;rounded=0;entryX=0.5;entryY=1;entryDx=0;entryDy=0;" edge="1" parent="1" source="s3L1DL3AQ4cHIZa4Q5mT-11" target="s3L1DL3AQ4cHIZa4Q5mT-3">
          <mxGeometry width="50" height="50" relative="1" as="geometry">
            <mxPoint x="205" y="139.28932188134524" as="sourcePoint" />
            <mxPoint x="205" y="89.28932188134524" as="targetPoint" />
          </mxGeometry>
        </mxCell>
        <mxCell id="s3L1DL3AQ4cHIZa4Q5mT-26" value="成绩" style="rounded=0;whiteSpace=wrap;html=1;" vertex="1" parent="1">
          <mxGeometry x="450" y="160" width="70" height="30" as="geometry" />
        </mxCell>
        <mxCell id="s3L1DL3AQ4cHIZa4Q5mT-30" value="所得" style="rhombus;whiteSpace=wrap;html=1;" vertex="1" parent="1">
          <mxGeometry x="340" y="210" width="80" height="50" as="geometry" />
        </mxCell>
        <mxCell id="s3L1DL3AQ4cHIZa4Q5mT-31" value="所属" style="rhombus;whiteSpace=wrap;html=1;" vertex="1" parent="1">
          <mxGeometry x="150" y="300" width="50" height="80" as="geometry" />
        </mxCell>
        <mxCell id="s3L1DL3AQ4cHIZa4Q5mT-34" value="学院" style="rounded=0;whiteSpace=wrap;html=1;" vertex="1" parent="1">
          <mxGeometry x="200" y="405" width="70" height="30" as="geometry" />
        </mxCell>
        <mxCell id="s3L1DL3AQ4cHIZa4Q5mT-37" value="所属" style="rhombus;whiteSpace=wrap;html=1;" vertex="1" parent="1">
          <mxGeometry x="280" y="310" width="80" height="50" as="geometry" />
        </mxCell>
        <mxCell id="s3L1DL3AQ4cHIZa4Q5mT-38" value="专业" style="rounded=0;whiteSpace=wrap;html=1;" vertex="1" parent="1">
          <mxGeometry x="379" y="370" width="70" height="30" as="geometry" />
        </mxCell>
        <mxCell id="s3L1DL3AQ4cHIZa4Q5mT-43" value="" style="endArrow=none;html=1;rounded=0;" edge="1" parent="1" target="s3L1DL3AQ4cHIZa4Q5mT-4">
          <mxGeometry width="50" height="50" relative="1" as="geometry">
            <mxPoint x="200" y="160" as="sourcePoint" />
            <mxPoint x="180" y="120" as="targetPoint" />
          </mxGeometry>
        </mxCell>
        <mxCell id="s3L1DL3AQ4cHIZa4Q5mT-44" value="" style="endArrow=none;html=1;rounded=0;entryX=0.75;entryY=0;entryDx=0;entryDy=0;exitX=0;exitY=0.5;exitDx=0;exitDy=0;" edge="1" parent="1" source="s3L1DL3AQ4cHIZa4Q5mT-8" target="s3L1DL3AQ4cHIZa4Q5mT-11">
          <mxGeometry width="50" height="50" relative="1" as="geometry">
            <mxPoint x="216.9230769230769" y="180.0000000000001" as="sourcePoint" />
            <mxPoint x="190" y="130" as="targetPoint" />
          </mxGeometry>
        </mxCell>
        <mxCell id="s3L1DL3AQ4cHIZa4Q5mT-45" value="" style="endArrow=none;html=1;rounded=0;exitX=0.5;exitY=0;exitDx=0;exitDy=0;" edge="1" parent="1">
          <mxGeometry width="50" height="50" relative="1" as="geometry">
            <mxPoint x="244.99999999999977" y="229.9999999999999" as="sourcePoint" />
            <mxPoint x="220" y="190" as="targetPoint" />
          </mxGeometry>
        </mxCell>
        <mxCell id="s3L1DL3AQ4cHIZa4Q5mT-46" value="" style="endArrow=none;html=1;rounded=0;entryX=1;entryY=0;entryDx=0;entryDy=0;exitX=0.5;exitY=1;exitDx=0;exitDy=0;" edge="1" parent="1" source="s3L1DL3AQ4cHIZa4Q5mT-11" target="s3L1DL3AQ4cHIZa4Q5mT-9">
          <mxGeometry width="50" height="50" relative="1" as="geometry">
            <mxPoint x="236.9230769230769" y="200.0000000000001" as="sourcePoint" />
            <mxPoint x="210" y="150" as="targetPoint" />
          </mxGeometry>
        </mxCell>
        <mxCell id="s3L1DL3AQ4cHIZa4Q5mT-47" value="" style="endArrow=none;html=1;rounded=0;exitX=1;exitY=0;exitDx=0;exitDy=0;" edge="1" parent="1" source="s3L1DL3AQ4cHIZa4Q5mT-7">
          <mxGeometry width="50" height="50" relative="1" as="geometry">
            <mxPoint x="246.9230769230769" y="210.0000000000001" as="sourcePoint" />
            <mxPoint x="160" y="190" as="targetPoint" />
          </mxGeometry>
        </mxCell>
        <mxCell id="s3L1DL3AQ4cHIZa4Q5mT-48" value="" style="endArrow=none;html=1;rounded=0;entryX=1;entryY=0.5;entryDx=0;entryDy=0;exitX=0;exitY=0.5;exitDx=0;exitDy=0;" edge="1" parent="1" source="s3L1DL3AQ4cHIZa4Q5mT-11">
          <mxGeometry width="50" height="50" relative="1" as="geometry">
            <mxPoint x="256.9230769230769" y="220.0000000000001" as="sourcePoint" />
            <mxPoint x="89.9999999999975" y="169.9999999999999" as="targetPoint" />
          </mxGeometry>
        </mxCell>
        <mxCell id="s3L1DL3AQ4cHIZa4Q5mT-49" value="" style="endArrow=none;html=1;rounded=0;entryX=1;entryY=1;entryDx=0;entryDy=0;" edge="1" parent="1">
          <mxGeometry width="50" height="50" relative="1" as="geometry">
            <mxPoint x="170" y="160" as="sourcePoint" />
            <mxPoint x="108.2842712474619" y="124.14213562373095" as="targetPoint" />
          </mxGeometry>
        </mxCell>
        <mxCell id="s3L1DL3AQ4cHIZa4Q5mT-50" value="" style="endArrow=none;html=1;rounded=0;exitX=0.5;exitY=0;exitDx=0;exitDy=0;" edge="1" parent="1" source="s3L1DL3AQ4cHIZa4Q5mT-31">
          <mxGeometry width="50" height="50" relative="1" as="geometry">
            <mxPoint x="276.9230769230769" y="240.0000000000001" as="sourcePoint" />
            <mxPoint x="210" y="190" as="targetPoint" />
          </mxGeometry>
        </mxCell>
        <mxCell id="s3L1DL3AQ4cHIZa4Q5mT-51" value="" style="endArrow=none;html=1;rounded=0;entryX=1;entryY=0.75;entryDx=0;entryDy=0;exitX=0;exitY=0.5;exitDx=0;exitDy=0;" edge="1" parent="1" source="s3L1DL3AQ4cHIZa4Q5mT-30" target="s3L1DL3AQ4cHIZa4Q5mT-11">
          <mxGeometry width="50" height="50" relative="1" as="geometry">
            <mxPoint x="286.9230769230769" y="250.0000000000001" as="sourcePoint" />
            <mxPoint x="260" y="200" as="targetPoint" />
          </mxGeometry>
        </mxCell>
        <mxCell id="s3L1DL3AQ4cHIZa4Q5mT-52" value="" style="endArrow=none;html=1;rounded=0;entryX=0.5;entryY=0;entryDx=0;entryDy=0;exitX=0.5;exitY=1;exitDx=0;exitDy=0;" edge="1" parent="1" target="s3L1DL3AQ4cHIZa4Q5mT-26">
          <mxGeometry width="50" height="50" relative="1" as="geometry">
            <mxPoint x="534.9999999999998" y="110" as="sourcePoint" />
            <mxPoint x="270" y="210" as="targetPoint" />
          </mxGeometry>
        </mxCell>
        <mxCell id="s3L1DL3AQ4cHIZa4Q5mT-54" value="" style="endArrow=none;html=1;rounded=0;entryX=0.75;entryY=0;entryDx=0;entryDy=0;exitX=0;exitY=0.5;exitDx=0;exitDy=0;" edge="1" parent="1" target="s3L1DL3AQ4cHIZa4Q5mT-26">
          <mxGeometry width="50" height="50" relative="1" as="geometry">
            <mxPoint x="559.9999999999998" y="150" as="sourcePoint" />
            <mxPoint x="494.9999999999998" y="170.0000000000001" as="targetPoint" />
          </mxGeometry>
        </mxCell>
        <mxCell id="s3L1DL3AQ4cHIZa4Q5mT-55" value="" style="endArrow=none;html=1;rounded=0;entryX=1;entryY=0.5;entryDx=0;entryDy=0;exitX=0;exitY=0;exitDx=0;exitDy=0;" edge="1" parent="1" target="s3L1DL3AQ4cHIZa4Q5mT-26">
          <mxGeometry width="50" height="50" relative="1" as="geometry">
            <mxPoint x="570.5077057814078" y="205.71282837248805" as="sourcePoint" />
            <mxPoint x="504.9999999999998" y="180.0000000000001" as="targetPoint" />
          </mxGeometry>
        </mxCell>
        <mxCell id="s3L1DL3AQ4cHIZa4Q5mT-56" value="" style="endArrow=none;html=1;rounded=0;entryX=0.5;entryY=0;entryDx=0;entryDy=0;exitX=0.5;exitY=1;exitDx=0;exitDy=0;" edge="1" parent="1" source="s3L1DL3AQ4cHIZa4Q5mT-26">
          <mxGeometry width="50" height="50" relative="1" as="geometry">
            <mxPoint x="564.9999999999998" y="140" as="sourcePoint" />
            <mxPoint x="504.9999999999998" y="229.9999999999999" as="targetPoint" />
          </mxGeometry>
        </mxCell>
        <mxCell id="s3L1DL3AQ4cHIZa4Q5mT-57" value="" style="endArrow=none;html=1;rounded=0;exitX=0.68;exitY=1.028;exitDx=0;exitDy=0;exitPerimeter=0;" edge="1" parent="1" target="s3L1DL3AQ4cHIZa4Q5mT-26">
          <mxGeometry width="50" height="50" relative="1" as="geometry">
            <mxPoint x="467.5999999999997" y="121.12" as="sourcePoint" />
            <mxPoint x="524.9999999999998" y="200.0000000000001" as="targetPoint" />
          </mxGeometry>
        </mxCell>
        <mxCell id="s3L1DL3AQ4cHIZa4Q5mT-58" value="" style="endArrow=none;html=1;rounded=0;exitX=0;exitY=1;exitDx=0;exitDy=0;entryX=1;entryY=0.5;entryDx=0;entryDy=0;" edge="1" parent="1" source="s3L1DL3AQ4cHIZa4Q5mT-26" target="s3L1DL3AQ4cHIZa4Q5mT-30">
          <mxGeometry width="50" height="50" relative="1" as="geometry">
            <mxPoint x="584.9999999999998" y="160" as="sourcePoint" />
            <mxPoint x="534.9999999999998" y="210.0000000000001" as="targetPoint" />
          </mxGeometry>
        </mxCell>
        <mxCell id="s3L1DL3AQ4cHIZa4Q5mT-60" value="" style="endArrow=none;html=1;rounded=0;entryX=1;entryY=0.5;entryDx=0;entryDy=0;exitX=0;exitY=0.5;exitDx=0;exitDy=0;" edge="1" parent="1" source="s3L1DL3AQ4cHIZa4Q5mT-38" target="s3L1DL3AQ4cHIZa4Q5mT-37">
          <mxGeometry width="50" height="50" relative="1" as="geometry">
            <mxPoint x="370" y="390" as="sourcePoint" />
            <mxPoint x="554.9999999999998" y="230.0000000000001" as="targetPoint" />
          </mxGeometry>
        </mxCell>
        <mxCell id="s3L1DL3AQ4cHIZa4Q5mT-61" value="" style="endArrow=none;html=1;rounded=0;entryX=0;entryY=0.5;entryDx=0;entryDy=0;exitX=0.5;exitY=0;exitDx=0;exitDy=0;" edge="1" parent="1" source="s3L1DL3AQ4cHIZa4Q5mT-38">
          <mxGeometry width="50" height="50" relative="1" as="geometry">
            <mxPoint x="389" y="394.9999999999999" as="sourcePoint" />
            <mxPoint x="489.9999999999998" y="339.9999999999999" as="targetPoint" />
          </mxGeometry>
        </mxCell>
        <mxCell id="s3L1DL3AQ4cHIZa4Q5mT-62" value="" style="endArrow=none;html=1;rounded=0;entryX=1;entryY=0.5;entryDx=0;entryDy=0;exitX=0;exitY=0;exitDx=0;exitDy=0;" edge="1" parent="1" target="s3L1DL3AQ4cHIZa4Q5mT-38">
          <mxGeometry width="50" height="50" relative="1" as="geometry">
            <mxPoint x="541.7157287525381" y="400.85786437626905" as="sourcePoint" />
            <mxPoint x="380.0000000000002" y="354.9999999999999" as="targetPoint" />
          </mxGeometry>
        </mxCell>
        <mxCell id="s3L1DL3AQ4cHIZa4Q5mT-63" value="" style="endArrow=none;html=1;rounded=0;exitX=0.5;exitY=0;exitDx=0;exitDy=0;" edge="1" parent="1" source="s3L1DL3AQ4cHIZa4Q5mT-34" target="s3L1DL3AQ4cHIZa4Q5mT-37">
          <mxGeometry width="50" height="50" relative="1" as="geometry">
            <mxPoint x="409" y="414.9999999999999" as="sourcePoint" />
            <mxPoint x="390.0000000000002" y="364.9999999999999" as="targetPoint" />
          </mxGeometry>
        </mxCell>
        <mxCell id="s3L1DL3AQ4cHIZa4Q5mT-64" value="" style="endArrow=none;html=1;rounded=0;exitX=1;exitY=0;exitDx=0;exitDy=0;" edge="1" parent="1">
          <mxGeometry width="50" height="50" relative="1" as="geometry">
            <mxPoint x="148.28427124746167" y="435.85786437626905" as="sourcePoint" />
            <mxPoint x="200" y="420" as="targetPoint" />
          </mxGeometry>
        </mxCell>
        <mxCell id="s3L1DL3AQ4cHIZa4Q5mT-65" value="" style="endArrow=none;html=1;rounded=0;entryX=0;entryY=0;entryDx=0;entryDy=0;exitX=1;exitY=0.5;exitDx=0;exitDy=0;" edge="1" parent="1" target="s3L1DL3AQ4cHIZa4Q5mT-34">
          <mxGeometry width="50" height="50" relative="1" as="geometry">
            <mxPoint x="129.9999999999975" y="389.9999999999999" as="sourcePoint" />
            <mxPoint x="410.0000000000002" y="384.9999999999999" as="targetPoint" />
          </mxGeometry>
        </mxCell>
        <mxCell id="s3L1DL3AQ4cHIZa4Q5mT-66" value="" style="endArrow=none;html=1;rounded=0;entryX=0.5;entryY=1;entryDx=0;entryDy=0;" edge="1" parent="1" source="s3L1DL3AQ4cHIZa4Q5mT-34" target="s3L1DL3AQ4cHIZa4Q5mT-31">
          <mxGeometry width="50" height="50" relative="1" as="geometry">
            <mxPoint x="439" y="444.9999999999999" as="sourcePoint" />
            <mxPoint x="420.0000000000002" y="394.9999999999999" as="targetPoint" />
          </mxGeometry>
        </mxCell>
        <mxCell id="s3L1DL3AQ4cHIZa4Q5mT-67" value="性别" style="ellipse;whiteSpace=wrap;html=1;align=center;dashed=1;" vertex="1" parent="1">
          <mxGeometry x="50" y="100" width="70" height="40" as="geometry" />
        </mxCell>
        <mxCell id="s3L1DL3AQ4cHIZa4Q5mT-69" value="学号" style="ellipse;whiteSpace=wrap;html=1;align=center;dashed=1;" vertex="1" parent="1">
          <mxGeometry x="40" y="150" width="70" height="40" as="geometry" />
        </mxCell>
        <mxCell id="s3L1DL3AQ4cHIZa4Q5mT-70" value="学制" style="ellipse;whiteSpace=wrap;html=1;align=center;dashed=1;" vertex="1" parent="1">
          <mxGeometry x="95" y="250" width="90" height="40" as="geometry" />
        </mxCell>
        <mxCell id="s3L1DL3AQ4cHIZa4Q5mT-71" value="名称" style="ellipse;whiteSpace=wrap;html=1;align=center;dashed=1;" vertex="1" parent="1">
          <mxGeometry x="60" y="370" width="90" height="40" as="geometry" />
        </mxCell>
        <mxCell id="s3L1DL3AQ4cHIZa4Q5mT-72" value="编号" style="ellipse;whiteSpace=wrap;html=1;align=center;dashed=1;" vertex="1" parent="1">
          <mxGeometry x="80" y="420" width="90" height="40" as="geometry" />
        </mxCell>
        <mxCell id="s3L1DL3AQ4cHIZa4Q5mT-73" value="编号" style="ellipse;whiteSpace=wrap;html=1;align=center;dashed=1;" vertex="1" parent="1">
          <mxGeometry x="510" y="380" width="90" height="40" as="geometry" />
        </mxCell>
        <mxCell id="s3L1DL3AQ4cHIZa4Q5mT-74" value="名称" style="ellipse;whiteSpace=wrap;html=1;align=center;dashed=1;" vertex="1" parent="1">
          <mxGeometry x="480" y="315" width="90" height="40" as="geometry" />
        </mxCell>
        <mxCell id="s3L1DL3AQ4cHIZa4Q5mT-75" value="姓名" style="ellipse;whiteSpace=wrap;html=1;align=center;dashed=1;" vertex="1" parent="1">
          <mxGeometry x="210" y="220" width="70" height="40" as="geometry" />
        </mxCell>
        <mxCell id="s3L1DL3AQ4cHIZa4Q5mT-76" style="edgeStyle=orthogonalEdgeStyle;rounded=0;orthogonalLoop=1;jettySize=auto;html=1;exitX=0.5;exitY=0;exitDx=0;exitDy=0;entryX=0.505;entryY=0.25;entryDx=0;entryDy=0;entryPerimeter=0;" edge="1" parent="1" source="s3L1DL3AQ4cHIZa4Q5mT-67" target="s3L1DL3AQ4cHIZa4Q5mT-67">
          <mxGeometry relative="1" as="geometry" />
        </mxCell>
        <mxCell id="s3L1DL3AQ4cHIZa4Q5mT-77" value="课程名" style="ellipse;whiteSpace=wrap;html=1;align=center;dashed=1;" vertex="1" parent="1">
          <mxGeometry x="410" y="90" width="90" height="40" as="geometry" />
        </mxCell>
        <mxCell id="s3L1DL3AQ4cHIZa4Q5mT-78" value="成绩" style="ellipse;whiteSpace=wrap;html=1;align=center;dashed=1;" vertex="1" parent="1">
          <mxGeometry x="510" y="80" width="70" height="40" as="geometry" />
        </mxCell>
        <mxCell id="s3L1DL3AQ4cHIZa4Q5mT-79" value="学期" style="ellipse;whiteSpace=wrap;html=1;align=center;dashed=1;" vertex="1" parent="1">
          <mxGeometry x="550" y="130" width="70" height="40" as="geometry" />
        </mxCell>
        <mxCell id="s3L1DL3AQ4cHIZa4Q5mT-80" value="类型" style="ellipse;whiteSpace=wrap;html=1;align=center;dashed=1;" vertex="1" parent="1">
          <mxGeometry x="550" y="190" width="70" height="40" as="geometry" />
        </mxCell>
        <mxCell id="s3L1DL3AQ4cHIZa4Q5mT-81" value="学号" style="ellipse;whiteSpace=wrap;html=1;align=center;dashed=1;" vertex="1" parent="1">
          <mxGeometry x="480" y="220" width="70" height="40" as="geometry" />
        </mxCell>
      </root>
    </mxGraphModel>
  </diagram>
</mxfile>
